<svg width="90" height="74" viewBox="0 0 90 74" fill="none" xmlns="http://www.w3.org/2000/svg">
<g clip-path="url(#clip0_69_120)">
<path d="M42.3529 36L21.1765 0L0 36H42.3529ZM23.698 23.8437C21.5988 24.3837 19.5453 25.0256 17.5472 25.776L21.176 19.6426L23.698 23.8441V23.8437Z" fill="url(#paint0_radial_69_120)" style="mix-blend-mode:multiply"/>
<path d="M8.76451 36C16.0099 29.7268 24.8309 25.1279 34.6457 22.897L34.1751 22.0976C21.1174 23.1078 9.34778 28.1903 0.081543 36H8.76451Z" fill="#006838"/>
<path d="M22.1748 36C26.184 31.8392 30.8446 28.2231 36.0881 25.3487L35.4379 24.2436C28.0503 26.9472 21.5199 30.9907 16.0371 36H22.1748Z" fill="#006838"/>
<path d="M30.8125 36C32.794 33.1351 35.0602 30.4324 37.6148 27.9454L36.8566 26.657C32.9855 29.3822 29.5879 32.5393 26.644 35.9996H30.8125V36Z" fill="#006838"/>
<path d="M37.1918 36C37.7831 34.2381 38.4782 32.4994 39.2932 30.7982L38.5595 29.551C37.0846 31.6247 35.8012 33.7816 34.7104 36H37.1918Z" fill="#006838"/>
</g>
<path d="M3.77304 45.2671H5.08424L8.83053 54.7498H7.25174L6.24827 52.1721H2.58226L1.59217 54.7498H0L3.77304 45.2671ZM5.95392 51.0636L4.42864 46.99L2.84985 51.0636H5.95392Z" fill="white"/>
<path d="M13.591 54.8833C13.0559 54.8833 12.5697 54.7587 12.1327 54.5094C11.7045 54.2512 11.3656 53.9084 11.1158 53.481V54.7498H9.81801V45H11.2898V49.0869C11.5663 48.6417 11.9097 48.29 12.32 48.0318C12.7392 47.7736 13.2298 47.6445 13.7917 47.6445C14.2556 47.6445 14.6793 47.7469 15.0628 47.9516C15.4464 48.1475 15.7719 48.4146 16.0395 48.753C16.316 49.0824 16.5256 49.4698 16.6684 49.915C16.82 50.3512 16.8958 50.8098 16.8958 51.2906C16.8958 51.7892 16.8111 52.2567 16.6416 52.693C16.4721 53.1293 16.2402 53.5121 15.9459 53.8416C15.6515 54.1621 15.2992 54.4159 14.8889 54.6029C14.4875 54.7898 14.0549 54.8833 13.591 54.8833ZM13.203 53.6279C13.5242 53.6279 13.8185 53.5656 14.0861 53.4409C14.3537 53.3073 14.5811 53.1337 14.7685 52.92C14.9647 52.7063 15.1163 52.4615 15.2234 52.1855C15.3304 51.9005 15.3839 51.6022 15.3839 51.2906C15.3839 50.979 15.3304 50.6807 15.2234 50.3958C15.1252 50.1019 14.9825 49.8482 14.7952 49.6345C14.6168 49.4119 14.3983 49.2338 14.1396 49.1003C13.8899 48.9667 13.6133 48.8999 13.3101 48.8999C12.8552 48.8999 12.4493 49.0468 12.0925 49.3407C11.7447 49.6345 11.4771 49.9906 11.2898 50.4091V52.2522C11.3433 52.457 11.4369 52.644 11.5707 52.8132C11.7045 52.9735 11.8606 53.1159 12.039 53.2406C12.2174 53.3652 12.4092 53.4632 12.6143 53.5344C12.8195 53.5967 13.0157 53.6279 13.203 53.6279Z" fill="white"/>
<path d="M18.2251 56.3926C18.3589 56.4193 18.4882 56.4415 18.6131 56.4593C18.7469 56.4771 18.8539 56.486 18.9342 56.486C19.0502 56.486 19.1483 56.4593 19.2286 56.4059C19.3178 56.3614 19.407 56.2768 19.4962 56.1521C19.5854 56.0275 19.6745 55.8494 19.7637 55.6179C19.8619 55.3953 19.9734 55.1059 20.0982 54.7498L17.2216 47.7647H18.7335L20.901 53.4543L22.8277 47.7647H24.2191L21.0482 56.3658C20.9055 56.7665 20.6557 57.1004 20.2989 57.3675C19.9511 57.6436 19.5006 57.7816 18.9476 57.7816C18.8406 57.7816 18.7291 57.7727 18.6131 57.7549C18.4971 57.7459 18.3678 57.7192 18.2251 57.6747V56.3926Z" fill="white"/>
<path d="M26.9911 54.8833C26.6522 54.8833 26.3355 54.8299 26.0412 54.7231C25.7557 54.6073 25.506 54.4515 25.2919 54.2556C25.0868 54.0597 24.9217 53.8282 24.7969 53.5611C24.6809 53.294 24.6229 53.0046 24.6229 52.693C24.6229 52.3635 24.6943 52.0653 24.837 51.7981C24.9797 51.531 25.1804 51.2995 25.4391 51.1036C25.7067 50.9077 26.0189 50.7564 26.3757 50.6495C26.7414 50.5427 27.1428 50.4893 27.5798 50.4893C27.9099 50.4893 28.2354 50.5204 28.5565 50.5828C28.8776 50.6362 29.1675 50.7119 29.4262 50.8098V50.329C29.4262 49.8126 29.279 49.4119 28.9847 49.127C28.6903 48.8331 28.2666 48.6862 27.7136 48.6862C27.339 48.6862 26.9688 48.7574 26.6031 48.8999C26.2463 49.0335 25.8762 49.2294 25.4926 49.4876L25.0377 48.5527C25.9386 47.9472 26.8752 47.6445 27.8474 47.6445C28.8108 47.6445 29.56 47.8893 30.0952 48.379C30.6304 48.8687 30.898 49.5722 30.898 50.4893V53.0135C30.898 53.3252 31.0273 53.4854 31.286 53.4943V54.7498C31.1433 54.7765 31.0184 54.7943 30.9113 54.8032C30.8132 54.8121 30.7151 54.8166 30.617 54.8166C30.3316 54.8166 30.1086 54.7453 29.948 54.6029C29.7964 54.4604 29.7027 54.2779 29.667 54.0553L29.6269 53.6145C29.3147 54.0241 28.9267 54.3402 28.4629 54.5628C28.008 54.7765 27.5174 54.8833 26.9911 54.8833ZM27.3925 53.8015C27.7493 53.8015 28.0838 53.7392 28.396 53.6145C28.7171 53.481 28.9668 53.2984 29.1452 53.0669C29.3326 52.9067 29.4262 52.7375 29.4262 52.5594V51.6379C29.1765 51.5399 28.9089 51.4642 28.6234 51.4108C28.3469 51.3574 28.0749 51.3307 27.8073 51.3307C27.281 51.3307 26.8484 51.4464 26.5095 51.6779C26.1794 51.9005 26.0144 52.1988 26.0144 52.5728C26.0144 52.92 26.1438 53.2139 26.4024 53.4543C26.6611 53.6858 26.9911 53.8015 27.3925 53.8015Z" fill="white"/>
<path d="M36.5247 54.3892C36.3374 54.4782 36.0787 54.5806 35.7487 54.6964C35.4187 54.8032 35.0663 54.8566 34.6917 54.8566C34.4598 54.8566 34.2413 54.8255 34.0361 54.7631C33.831 54.7008 33.6481 54.6073 33.4875 54.4827C33.3359 54.358 33.2155 54.1977 33.1263 54.0019C33.0371 53.7971 32.9925 53.5522 32.9925 53.2673V48.8999H32.0693V47.7647H32.9925V45.4675H34.4643V47.7647H35.9895V48.8999H34.4643V52.7998C34.4821 53.0491 34.5579 53.2317 34.6917 53.3474C34.8344 53.4543 35.0084 53.5077 35.2135 53.5077C35.4187 53.5077 35.6149 53.4721 35.8022 53.4008C35.9895 53.3296 36.1278 53.2717 36.217 53.2272L36.5247 54.3892Z" fill="white"/>
<path d="M47.6867 53.5745C46.884 54.4025 45.9608 54.8166 44.9172 54.8166C44.2839 54.8166 43.6952 54.6875 43.1511 54.4292C42.607 54.1621 42.1342 53.806 41.7328 53.3608C41.3314 52.9156 41.0148 52.3991 40.7829 51.8115C40.5599 51.2238 40.4484 50.6095 40.4484 49.9684C40.4484 49.3273 40.5599 48.7174 40.7829 48.1386C41.0148 47.5599 41.3314 47.0524 41.7328 46.6161C42.1342 46.1798 42.6114 45.837 43.1644 45.5877C43.7175 45.3294 44.3195 45.2003 44.9707 45.2003C45.8805 45.2003 46.6431 45.3918 47.2586 45.7746C47.8741 46.1486 48.3379 46.6472 48.6501 47.2705L47.4994 48.0986C47.2407 47.5821 46.884 47.1948 46.4291 46.9366C45.9742 46.6784 45.4746 46.5493 44.9305 46.5493C44.4846 46.5493 44.0787 46.6472 43.713 46.8431C43.3473 47.0301 43.0351 47.2839 42.7764 47.6044C42.5178 47.916 42.3171 48.2811 42.1743 48.6996C42.0406 49.1181 41.9737 49.5543 41.9737 50.0084C41.9737 50.4893 42.0495 50.9389 42.2011 51.3574C42.3617 51.7759 42.5757 52.1409 42.8433 52.4526C43.1198 52.7642 43.4454 53.0135 43.82 53.2005C44.1947 53.3786 44.6005 53.4676 45.0376 53.4676C45.5192 53.4676 45.9786 53.3563 46.4157 53.1337C46.8617 52.9111 47.2853 52.5594 47.6867 52.0786V51.0636H45.6932V49.955H48.9444V54.7498H47.6867V53.5745Z" fill="white"/>
<path d="M53.6373 54.8833C53.0932 54.8833 52.5982 54.7898 52.1522 54.6029C51.7062 54.407 51.3226 54.1443 51.0015 53.8149C50.6893 53.4854 50.444 53.1026 50.2657 52.6663C50.0962 52.23 50.0114 51.767 50.0114 51.2773C50.0114 50.7875 50.0962 50.3245 50.2657 49.8882C50.444 49.4431 50.6893 49.0557 51.0015 48.7263C51.3226 48.3879 51.7062 48.1253 52.1522 47.9383C52.5982 47.7424 53.0977 47.6445 53.6507 47.6445C54.1948 47.6445 54.6854 47.7424 55.1224 47.9383C55.5684 48.1342 55.9475 48.3968 56.2597 48.7263C56.5719 49.0468 56.8083 49.4252 56.9688 49.8615C57.1383 50.2889 57.223 50.7386 57.223 51.2105C57.223 51.3173 57.2186 51.4197 57.2097 51.5177C57.2007 51.6067 57.1918 51.6824 57.1829 51.7447H51.5769C51.6036 52.0563 51.675 52.3368 51.7909 52.5861C51.9158 52.8354 52.0719 53.0536 52.2592 53.2406C52.4554 53.4186 52.674 53.5567 52.9148 53.6546C53.1646 53.7525 53.4232 53.8015 53.6908 53.8015C53.8871 53.8015 54.0788 53.7793 54.2661 53.7347C54.4624 53.6813 54.6408 53.6101 54.8013 53.521C54.9619 53.4231 55.1046 53.3073 55.2295 53.1738C55.3544 53.0402 55.4525 52.8933 55.5238 52.733L56.7815 53.0937C56.5407 53.619 56.1393 54.0508 55.5774 54.3892C55.0243 54.7186 54.3776 54.8833 53.6373 54.8833ZM55.7647 50.7297C55.7379 50.4358 55.6621 50.1643 55.5372 49.915C55.4213 49.6656 55.2696 49.4564 55.0823 49.2872C54.895 49.1092 54.6765 48.9711 54.4267 48.8732C54.177 48.7753 53.9138 48.7263 53.6373 48.7263C53.3608 48.7263 53.0977 48.7753 52.8479 48.8732C52.6071 48.9711 52.393 49.1092 52.2057 49.2872C52.0184 49.4564 51.8667 49.6656 51.7508 49.915C51.6348 50.1643 51.5635 50.4358 51.5367 50.7297H55.7647Z" fill="white"/>
<path d="M64.6986 54.7498H63.2268V50.8365C63.2268 50.1776 63.1198 49.7013 62.9057 49.4074C62.7006 49.1047 62.3928 48.9533 61.9825 48.9533C61.7684 48.9533 61.5544 48.9934 61.3403 49.0735C61.1262 49.1537 60.9255 49.2694 60.7382 49.4208C60.5509 49.5633 60.3814 49.7369 60.2298 49.9417C60.0871 50.1376 59.9756 50.3557 59.8953 50.5961V54.7498H58.4235V47.7647H59.7615V49.167C60.0291 48.6951 60.4171 48.3256 60.9255 48.0585C61.4339 47.7825 61.9959 47.6445 62.6114 47.6445C63.0306 47.6445 63.374 47.7201 63.6416 47.8715C63.9092 48.0229 64.1188 48.2321 64.2704 48.4992C64.431 48.7574 64.5425 49.0602 64.6049 49.4074C64.6674 49.7458 64.6986 50.1064 64.6986 50.4893V54.7498Z" fill="white"/>
<path d="M69.5778 54.8833C69.0337 54.8833 68.5387 54.7898 68.0927 54.6029C67.6467 54.407 67.2632 54.1443 66.9421 53.8149C66.6299 53.4854 66.3846 53.1026 66.2062 52.6663C66.0367 52.23 65.952 51.767 65.952 51.2773C65.952 50.7875 66.0367 50.3245 66.2062 49.8882C66.3846 49.4431 66.6299 49.0557 66.9421 48.7263C67.2632 48.3879 67.6467 48.1253 68.0927 47.9383C68.5387 47.7424 69.0382 47.6445 69.5912 47.6445C70.1353 47.6445 70.6259 47.7424 71.063 47.9383C71.509 48.1342 71.888 48.3968 72.2002 48.7263C72.5124 49.0468 72.7488 49.4252 72.9094 49.8615C73.0788 50.2889 73.1636 50.7386 73.1636 51.2105C73.1636 51.3173 73.1591 51.4197 73.1502 51.5177C73.1413 51.6067 73.1323 51.6824 73.1234 51.7447H67.5174C67.5441 52.0563 67.6155 52.3368 67.7315 52.5861C67.8563 52.8354 68.0124 53.0536 68.1997 53.2406C68.396 53.4186 68.6145 53.5567 68.8553 53.6546C69.1051 53.7525 69.3638 53.8015 69.6314 53.8015C69.8276 53.8015 70.0194 53.7793 70.2067 53.7347C70.4029 53.6813 70.5813 53.6101 70.7419 53.521C70.9024 53.4231 71.0451 53.3073 71.17 53.1738C71.2949 53.0402 71.393 52.8933 71.4644 52.733L72.722 53.0937C72.4812 53.619 72.0798 54.0508 71.5179 54.3892C70.9649 54.7186 70.3182 54.8833 69.5778 54.8833ZM71.7052 50.7297C71.6784 50.4358 71.6026 50.1643 71.4777 49.915C71.3618 49.6656 71.2101 49.4564 71.0228 49.2872C70.8355 49.1092 70.617 48.9711 70.3672 48.8732C70.1175 48.7753 69.8543 48.7263 69.5778 48.7263C69.3013 48.7263 69.0382 48.7753 68.7884 48.8732C68.5476 48.9711 68.3335 49.1092 68.1462 49.2872C67.9589 49.4564 67.8073 49.6656 67.6913 49.915C67.5754 50.1643 67.504 50.4358 67.4772 50.7297H71.7052Z" fill="white"/>
<path d="M78.2977 49.0335C77.7268 49.0513 77.2184 49.1848 76.7724 49.4341C76.3353 49.6746 76.0231 50.0218 75.8358 50.4759V54.7498H74.3641V47.7647H75.7288V49.3273C75.9696 48.8465 76.2818 48.4636 76.6654 48.1787C77.0578 47.8849 77.4771 47.7246 77.923 47.6979C78.0122 47.6979 78.0836 47.6979 78.1371 47.6979C78.1996 47.6979 78.2531 47.7023 78.2977 47.7112V49.0335Z" fill="white"/>
<path d="M81.1367 54.8833C80.7977 54.8833 80.481 54.8299 80.1867 54.7231C79.9013 54.6073 79.6515 54.4515 79.4374 54.2556C79.2323 54.0597 79.0673 53.8282 78.9424 53.5611C78.8264 53.294 78.7685 53.0046 78.7685 52.693C78.7685 52.3635 78.8398 52.0653 78.9825 51.7981C79.1253 51.531 79.3259 51.2995 79.5846 51.1036C79.8522 50.9077 80.1644 50.7564 80.5212 50.6495C80.8869 50.5427 81.2883 50.4893 81.7254 50.4893C82.0554 50.4893 82.381 50.5204 82.7021 50.5828C83.0232 50.6362 83.3131 50.7119 83.5717 50.8098V50.329C83.5717 49.8126 83.4246 49.4119 83.1302 49.127C82.8359 48.8331 82.4122 48.6862 81.8591 48.6862C81.4845 48.6862 81.1143 48.7574 80.7486 48.8999C80.3919 49.0335 80.0217 49.2294 79.6381 49.4876L79.1832 48.5527C80.0841 47.9472 81.0207 47.6445 81.9929 47.6445C82.9563 47.6445 83.7055 47.8893 84.2407 48.379C84.7759 48.8687 85.0435 49.5722 85.0435 50.4893V53.0135C85.0435 53.3252 85.1728 53.4854 85.4315 53.4943V54.7498C85.2888 54.7765 85.1639 54.7943 85.0569 54.8032C84.9588 54.8121 84.8606 54.8166 84.7625 54.8166C84.4771 54.8166 84.2541 54.7453 84.0935 54.6029C83.9419 54.4604 83.8483 54.2779 83.8126 54.0553L83.7724 53.6145C83.4602 54.0241 83.0722 54.3402 82.6084 54.5628C82.1535 54.7765 81.6629 54.8833 81.1367 54.8833ZM81.538 53.8015C81.8948 53.8015 82.2293 53.7392 82.5415 53.6145C82.8626 53.481 83.1124 53.2984 83.2908 53.0669C83.4781 52.9067 83.5717 52.7375 83.5717 52.5594V51.6379C83.322 51.5399 83.0544 51.4642 82.769 51.4108C82.4925 51.3574 82.2204 51.3307 81.9528 51.3307C81.4265 51.3307 80.9939 51.4464 80.655 51.6779C80.325 51.9005 80.1599 52.1988 80.1599 52.5728C80.1599 52.92 80.2893 53.2139 80.5479 53.4543C80.8066 53.6858 81.1367 53.8015 81.538 53.8015Z" fill="white"/>
<path d="M86.8424 45H88.3142V52.733C88.3142 52.9913 88.3811 53.196 88.5149 53.3474C88.6487 53.4899 88.836 53.5611 89.0768 53.5611C89.1749 53.5611 89.2864 53.5433 89.4113 53.5077C89.5451 53.4721 89.67 53.432 89.7859 53.3875L90 54.5361C89.7859 54.634 89.5317 54.7097 89.2374 54.7631C88.943 54.8255 88.6799 54.8566 88.448 54.8566C87.9395 54.8566 87.5426 54.7186 87.2572 54.4426C86.9807 54.1666 86.8424 53.7748 86.8424 53.2673V45Z" fill="white"/>
<path d="M7.94748 62.4494H4.78989V70.6099H3.278V62.4494H0.107037V61.1272H7.94748V62.4494Z" fill="white"/>
<path d="M11.4912 64.8936C10.9203 64.9114 10.4119 65.0449 9.96591 65.2942C9.52885 65.5346 9.21666 65.8819 9.02934 66.336V70.6099H7.55759V63.6248H8.9223V65.1874C9.16314 64.7066 9.47533 64.3237 9.85888 64.0388C10.2513 63.745 10.6706 63.5847 11.1166 63.558C11.2058 63.558 11.2771 63.558 11.3306 63.558C11.3931 63.558 11.4466 63.5624 11.4912 63.5713V64.8936Z" fill="white"/>
<path d="M14.3302 70.7434C13.9912 70.7434 13.6746 70.69 13.3802 70.5832C13.0948 70.4674 12.845 70.3116 12.631 70.1157C12.4258 69.9198 12.2608 69.6883 12.1359 69.4212C12.02 69.1541 11.962 68.8647 11.962 68.5531C11.962 68.2236 12.0333 67.9253 12.1761 67.6582C12.3188 67.3911 12.5195 67.1596 12.7781 66.9637C13.0457 66.7678 13.3579 66.6165 13.7147 66.5096C14.0804 66.4028 14.4818 66.3493 14.9189 66.3493C15.2489 66.3493 15.5745 66.3805 15.8956 66.4428C16.2167 66.4963 16.5066 66.5719 16.7653 66.6699V66.1891C16.7653 65.6726 16.6181 65.272 16.3237 64.987C16.0294 64.6932 15.6057 64.5463 15.0527 64.5463C14.678 64.5463 14.3079 64.6175 13.9422 64.76C13.5854 64.8936 13.2152 65.0894 12.8317 65.3477L12.3767 64.4127C13.2776 63.8073 14.2142 63.5045 15.1865 63.5045C16.1498 63.5045 16.899 63.7494 17.4342 64.2391C17.9694 64.7288 18.237 65.4322 18.237 66.3493V68.8736C18.237 69.1852 18.3663 69.3455 18.625 69.3544V70.6099C18.4823 70.6366 18.3574 70.6544 18.2504 70.6633C18.1523 70.6722 18.0542 70.6766 17.956 70.6766C17.6706 70.6766 17.4476 70.6054 17.2871 70.463C17.1354 70.3205 17.0418 70.138 17.0061 69.9154L16.9659 69.4746C16.6538 69.8842 16.2657 70.2003 15.8019 70.4229C15.347 70.6366 14.8564 70.7434 14.3302 70.7434ZM14.7316 69.6616C15.0883 69.6616 15.4228 69.5993 15.735 69.4746C16.0561 69.3411 16.3059 69.1585 16.4843 68.927C16.6716 68.7668 16.7653 68.5976 16.7653 68.4195V67.498C16.5155 67.4 16.2479 67.3243 15.9625 67.2709C15.686 67.2175 15.4139 67.1908 15.1463 67.1908C14.6201 67.1908 14.1875 67.3065 13.8485 67.538C13.5185 67.7606 13.3535 68.0589 13.3535 68.4329C13.3535 68.7801 13.4828 69.0739 13.7415 69.3144C14.0001 69.5459 14.3302 69.6616 14.7316 69.6616Z" fill="white"/>
<path d="M22.8724 70.7434C22.3997 70.7434 21.9626 70.6499 21.5612 70.463C21.1598 70.2671 20.812 70.0044 20.5176 69.675C20.2232 69.3455 19.9913 68.9626 19.8219 68.5264C19.6613 68.0812 19.581 67.6048 19.581 67.0973C19.581 66.6076 19.6568 66.149 19.8085 65.7216C19.969 65.2853 20.1876 64.9025 20.4641 64.573C20.7495 64.2436 21.0795 63.9854 21.4542 63.7984C21.8377 63.6025 22.2569 63.5045 22.7119 63.5045C23.2738 63.5045 23.7688 63.6426 24.197 63.9186C24.6251 64.1857 24.9596 64.5285 25.2005 64.947V60.8601H26.6722V68.8736C26.6722 69.0428 26.699 69.163 26.7525 69.2342C26.8149 69.3054 26.922 69.3455 27.0736 69.3544V70.6099C26.922 70.6366 26.7971 70.6544 26.699 70.6633C26.6098 70.6722 26.534 70.6766 26.4715 70.6766C26.1772 70.6766 25.9363 70.601 25.749 70.4496C25.5617 70.2982 25.4591 70.1023 25.4413 69.8619L25.4145 69.3411C25.1559 69.7774 24.8035 70.1202 24.3575 70.3695C23.9116 70.6188 23.4165 70.7434 22.8724 70.7434ZM23.2337 69.488C23.4477 69.488 23.6618 69.4524 23.8759 69.3811C24.09 69.3099 24.2862 69.212 24.4646 69.0873C24.643 68.9626 24.7946 68.8157 24.9195 68.6466C25.0533 68.4774 25.1469 68.2949 25.2005 68.099V66.2692C25.1202 66.0466 25.0042 65.8418 24.8526 65.6548C24.7099 65.4679 24.5449 65.3076 24.3575 65.174C24.1702 65.0405 23.9695 64.9381 23.7555 64.8668C23.5503 64.7956 23.3407 64.76 23.1266 64.76C22.8323 64.76 22.5602 64.8268 22.3105 64.9603C22.0696 65.0939 21.86 65.272 21.6816 65.4946C21.5032 65.7172 21.3605 65.9709 21.2535 66.2559C21.1554 66.5408 21.1063 66.8346 21.1063 67.1373C21.1063 67.4579 21.1598 67.7606 21.2669 68.0455C21.3828 68.3305 21.5389 68.5798 21.7351 68.7935C21.9314 69.0072 22.1544 69.1763 22.4041 69.301C22.6628 69.4256 22.9393 69.488 23.2337 69.488Z" fill="white"/>
<path d="M28.5416 70.6099V63.6248H30.0133V70.6099H28.5416ZM28.5416 62.4761V60.8601H30.0133V62.4761H28.5416Z" fill="white"/>
<path d="M38.057 70.6099H36.5852V66.6966C36.5852 66.0377 36.4782 65.5614 36.2641 65.2675C36.059 64.9648 35.7512 64.8134 35.3409 64.8134C35.1269 64.8134 34.9128 64.8535 34.6987 64.9336C34.4846 65.0138 34.2839 65.1295 34.0966 65.2809C33.9093 65.4233 33.7398 65.597 33.5882 65.8018C33.4455 65.9976 33.334 66.2158 33.2537 66.4562V70.6099H31.782V63.6248H33.1199V65.0271C33.3875 64.5552 33.7755 64.1857 34.2839 63.9186C34.7924 63.6426 35.3543 63.5045 35.9698 63.5045C36.389 63.5045 36.7324 63.5802 37 63.7316C37.2676 63.883 37.4772 64.0922 37.6288 64.3593C37.7894 64.6175 37.9009 64.9203 37.9633 65.2675C38.0258 65.6059 38.057 65.9665 38.057 66.3493V70.6099Z" fill="white"/>
<path d="M42.5349 70.6766C42.0621 70.6766 41.6295 70.5832 41.237 70.3962C40.8446 70.2003 40.5056 69.9376 40.2202 69.6082C39.9437 69.2787 39.7251 68.9003 39.5646 68.4729C39.413 68.0455 39.3371 67.5959 39.3371 67.124C39.3371 66.6254 39.4174 66.1579 39.578 65.7216C39.7385 65.2764 39.9615 64.8936 40.247 64.573C40.5324 64.2436 40.8713 63.9854 41.2638 63.7984C41.6652 63.6025 42.1067 63.5045 42.5884 63.5045C43.1503 63.5045 43.6409 63.6381 44.0601 63.9052C44.4883 64.1723 44.8406 64.5196 45.1171 64.947V63.6248H46.4149V70.4095C46.4149 70.9171 46.3213 71.3667 46.134 71.7585C45.9467 72.1502 45.6835 72.4797 45.3446 72.7468C45.0145 73.0228 44.6221 73.2321 44.1672 73.3745C43.7123 73.517 43.2217 73.5882 42.6954 73.5882C41.9194 73.5882 41.2727 73.4547 40.7554 73.1876C40.247 72.9293 39.8188 72.5643 39.4709 72.0924L40.3005 71.3177C40.5681 71.6917 40.9115 71.9766 41.3307 72.1725C41.7589 72.3684 42.2138 72.4663 42.6954 72.4663C42.9987 72.4663 43.2841 72.4263 43.5517 72.3461C43.8282 72.266 44.0691 72.1413 44.2742 71.9722C44.4794 71.803 44.6399 71.5893 44.7559 71.3311C44.8807 71.0729 44.9432 70.7657 44.9432 70.4095V69.3411C44.6934 69.7684 44.35 70.0979 43.913 70.3294C43.4759 70.5609 43.0165 70.6766 42.5349 70.6766ZM43.0165 69.488C43.2395 69.488 43.4536 69.4524 43.6587 69.3811C43.8639 69.301 44.0512 69.1986 44.2207 69.0739C44.3991 68.9404 44.5507 68.7935 44.6756 68.6332C44.8005 68.464 44.8897 68.2859 44.9432 68.099V66.2692C44.854 66.0466 44.738 65.8463 44.5953 65.6682C44.4526 65.4812 44.2876 65.3209 44.1003 65.1874C43.9219 65.0538 43.7301 64.9514 43.525 64.8802C43.3198 64.8001 43.1146 64.76 42.9095 64.76C42.5884 64.76 42.2985 64.8312 42.0398 64.9737C41.7901 65.1073 41.576 65.2898 41.3976 65.5213C41.2192 65.7439 41.0809 65.9976 40.9828 66.2826C40.8847 66.5675 40.8357 66.8613 40.8357 67.1641C40.8357 67.4846 40.8892 67.7873 40.9962 68.0723C41.1122 68.3483 41.2683 68.5931 41.4645 68.8068C41.6607 69.0116 41.8882 69.1763 42.1469 69.301C42.4144 69.4256 42.7043 69.488 43.0165 69.488Z" fill="white"/>
<path d="M51.6728 70.6099V61.1272H58.0014V62.4494H53.1713V65.2809H57.212V66.523H53.1713V70.6099H51.6728Z" fill="white"/>
<path d="M58.7654 69.4613L64.532 62.4494H58.8991V61.1272H66.2847V62.2758L60.6519 69.2876H66.2981V70.6099H58.7654V69.4613Z" fill="white"/>
<path d="M74.3513 69.2876V70.6099H67.8355V61.1272H74.2309V62.4494H69.334V65.1473H73.5753V66.3894H69.334V69.2876H74.3513Z" fill="white"/>
<defs>
<radialGradient id="paint0_radial_69_120" cx="0" cy="0" r="1" gradientUnits="userSpaceOnUse" gradientTransform="translate(0.685775 35.5107) scale(42.1051 41.3261)">
<stop stop-color="#C7E500"/>
<stop offset="1" stop-color="#47A100"/>
</radialGradient>
<clipPath id="clip0_69_120">
<rect width="42.3529" height="36" fill="white"/>
</clipPath>
</defs>
</svg>
